#N canvas 0 342 1728 979 10;
#X declare -lib Gem;
#X obj 357 25 cnv 15 464 210 empty empty T-Stick 20 12 0 20 #dcdcdc
#404040 0;
#X obj 1067 222 timer;
#X floatatom 1067 246 8 0 0 0 - - - 0;
#X obj 1067 197 t b b;
#X obj 1067 172 r rawtimer;
#N canvas 0 22 450 278 (subpatch) 0;
#X array rawtime 100 float 1;
#A 0 0 21.3333 0 0 0 21.3333 0 0 0 21.3333 0 0 0 21.3333 0 0 21.3333
0 0 21.3333 0 0 0 21.3333 0 0 0 21.3333 0 0 0 21.3333 0 0 21.3333 0
0 21.3333 0 0 0 0 21.3333 0 0 21.3333 0 0 0 21.3333 0 0 21.3333 0 0
0 0 21.3333 0 21.3333 0 0 0 21.3333 0 0 0 21.3333 0 0 0 21.3333 0 0
21.3333 0 0 0 21.3333 0 0 0 21.3333 0 0 0 21.3333 0 0 21.3333 0 0 0
21.3333 0 0 0 21.3333 0 0;
#X coords 0 100 99 0 200 140 1;
#X restore 861 169 graph;
#N canvas 264 335 568 475 timegraph 0;
#X obj 111 257 list store;
#X obj 117 300 list split 100;
#X msg 148 105 0 0 0 0 0 0 0 0 0 0 0 0 0 0 0 0 0 0 0 0 0 0 0 0 0 0
0 0 0 0 0 0 0 0 0 0 0 0 0 0 0 0 0 0 0 0 0 0 0 0 0 0 0 0 0 0 0 0 0 0
0 0 0 0 0 0 0 0 0 0 0 0 0 0 0 0 0 0 0 0 0 0 0 0 0 0 0 0 0 0 0 0 0 0
0 0 0 0 0 0;
#X obj 54 178 moses 0;
#X obj 78 215 moses 101;
#X obj 57 59 inlet;
#X obj 173 53 loadbang;
#X obj 123 353 outlet;
#X connect 0 0 1 0;
#X connect 1 0 0 1;
#X connect 1 0 7 0;
#X connect 2 0 0 1;
#X connect 2 0 7 0;
#X connect 3 1 4 0;
#X connect 4 0 0 0;
#X connect 5 0 3 0;
#X connect 6 0 2 0;
#X restore 1067 270 pd timegraph;
#X obj 1067 294 array set rawtime;
#X obj 310 18 inlet;
#X obj 54 274 netreceive -u -b;
#X obj 137 298 oscparse;
#X text 405 168 port to receive messages;
#X msg 54 251 listen \$1;
#X floatatom 366 169 6 0 0 0 - - - 0;
#X obj 173 15 loadbang;
#X obj 55 300 s rawtimer;
#X symbolatom 366 87 20 0 0 2 T-Stick_IP toip ip 0;
#X floatatom 496 87 5 0 0 2 port toport port 0;
#X floatatom 594 160 10 0 1 1 FSR_offset(between_0_and_1) fsr fsr-send
0;
#X obj 595 52 bng 15 250 50 0 write empty Write 17 7 0 10 #fcfcfc #000000
#000000;
#X obj 647 52 bng 15 250 50 0 read empty Read 17 7 0 10 #fcfcfc #000000
#000000;
#X text 594 32 T-Stick memory;
#X obj 157 102 unpack s f;
#X obj 202 242 route list;
#X msg 111 88 8000;
#X obj 367 122 tgl 25 0 empty empty Receive_OSC_messages 30 14 0 14
#fcfcfc #000000 #000000 0 1;
#X obj 314 147 sel 1;
#X msg 172 38 0;
#X obj 118 48 t 1 b b;
#X obj 45 88 delay 500;
#X obj 118 20 bng 15 250 50 0 empty empty empty 17 7 0 10 #fcfcfc #000000
#000000;
#X obj 1072 31 r info;
#X obj 972 102 s serial;
#X obj 1027 102 s firmware;
#X obj 366 55 tgl 15 0 empty empty Send_OSC_messages_to_T-Stick 17
7 0 10 #fcfcfc #000000 #000000 0 1;
#X obj 94 120 sel 1 0;
#X obj 95 170 t b b;
#X floatatom 595 107 7 0 0 3 Serial_number serial sserial 0;
#X floatatom 694 106 7 0 0 3 Firmware_version firmware sfirmware 0
;
#X obj 595 86 bng 15 250 50 0 getinfo empty Get_T-Stick_info 17 7 0
10 #fcfcfc #000000 #000000;
#X obj 594 180 bng 15 250 50 0 send_FSR_offset empty send_FSR_offset
17 7 0 10 #fcfcfc #000000 #000000;
#N canvas 874 259 723 647 visual_orientation 0;
#X obj 30 158 gemwin;
#X msg 30 83 0 \, destroy;
#X obj 90 243 gemhead;
#X obj 516 196 gemhead;
#X obj 516 234 world_light;
#X msg 131 109 reset \, dimen 800 600 \, lighting 1 \, create \, 1
;
#X obj 80 381 model;
#X msg 75 138 open T-Stick.obj;
#X obj 199 223 tgl 15 0 empty empty empty 17 7 0 10 #fcfcfc #000000
#000000 0 1;
#X obj 630 198 tgl 15 0 empty empty empty 17 7 0 10 #fcfcfc #000000
#000000 0 1;
#X msg 630 218 debug \$1;
#X obj 201 162 loadbang;
#X msg 199 200 1;
#X obj 410 270 vsl 20 64 0 2 0 0 empty empty empty 0 -9 0 10 #fcfcfc
#000000 #000000 0 1;
#X obj 30 30 inlet;
#X obj 30 51 sel 0 1;
#X obj 494 66 inlet;
#X text 405 340 zoom;
#X obj 405 57 inlet;
#X obj 405 84 moses 0;
#X obj 405 109 moses 2;
#X obj 299 23 declare -lib Gem;
#X obj 104 83 t b b;
#X text 69 31 create/destroy window;
#X text 537 20 YPR;
#X text 444 57 zoom;
#X obj 544 66 inlet;
#X obj 594 66 inlet;
#X obj 90 275 color 0 0.6 0;
#X msg 255 186 2;
#X obj 172 399 gemhead;
#X obj 162 537 model;
#X obj 172 431 color 0.6 0.6 0;
#X obj 172 484 rotateXYZ 0 0 0;
#X obj 90 328 rotateXYZ 0 0 0;
#X obj 90 353 scale 1.2;
#X obj 172 509 scale 1.2;
#X obj 312 409 gemhead;
#X obj 302 547 model;
#X obj 312 494 rotateXYZ 0 0 0;
#X obj 312 519 scale 1.2;
#X obj 90 302 translateXYZ -2 2 0;
#X obj 172 457 translateXYZ 2 2 0;
#X obj 312 441 color 0.6 0.6 0.6;
#X obj 312 467 translateXYZ 0 -2 0;
#X obj 516 215 rotateXYZ 0 0 0;
#X connect 1 0 0 0;
#X connect 2 0 28 0;
#X connect 3 0 45 0;
#X connect 5 0 0 0;
#X connect 7 0 6 0;
#X connect 7 0 31 0;
#X connect 7 0 38 0;
#X connect 8 0 4 0;
#X connect 9 0 10 0;
#X connect 10 0 4 0;
#X connect 11 0 12 0;
#X connect 11 0 29 0;
#X connect 12 0 8 0;
#X connect 14 0 15 0;
#X connect 15 0 1 0;
#X connect 15 1 22 0;
#X connect 16 0 34 2;
#X connect 18 0 19 0;
#X connect 19 1 20 0;
#X connect 20 0 13 0;
#X connect 22 0 7 0;
#X connect 22 1 5 0;
#X connect 26 0 33 3;
#X connect 27 0 39 1;
#X connect 28 0 41 0;
#X connect 29 0 13 0;
#X connect 30 0 32 0;
#X connect 32 0 42 0;
#X connect 33 0 36 0;
#X connect 34 0 35 0;
#X connect 35 0 6 0;
#X connect 36 0 31 0;
#X connect 37 0 43 0;
#X connect 39 0 40 0;
#X connect 40 0 38 0;
#X connect 41 0 34 0;
#X connect 42 0 33 0;
#X connect 43 0 44 0;
#X connect 44 0 39 0;
#X connect 45 0 4 0;
#X restore 1291 461 pd visual_orientation;
#X obj 1401 427 tgl 15 0 empty empty empty 17 7 0 10 #fcfcfc #000000
#000000 0 1;
#X text 1206 424 Click here to check orientation;
#X obj 1207 461 unpack f f f;
#X obj 172 59 s touch;
#X obj 113 148 s todisconect;
#X obj 135 200 s toport;
#X obj 162 181 s toip;
#X obj 1094 134 s fsr;
#X obj 843 83 r battery;
#X floatatom 761 212 4 0 0 1 % - - 0;
#X obj 1072 57 list split 3;
#X obj 1024 78 unpack f f f;
#X msg 1106 102 set \$1 \$2 \$3 \$4 \$5 \$6 \$7 \$8 \$9 \$10;
#X text 608 210 Touch mask;
#X text 752 192 Battery;
#N canvas 164 41 831 421 sending_messages_to_T-Stick 0;
#X msg 547 353 disconnect;
#X obj 547 376 netsend -u -b;
#X obj 673 320 pack s f;
#X obj 703 300 i;
#X obj 673 280 t b f;
#X obj 298 148 oscformat state touchMask;
#X obj 441 305 list prepend send;
#X obj 441 329 list trim;
#X obj 456 148 oscformat state json;
#X msg 462 120 1;
#X msg 521 119 2;
#X obj 673 360 list trim;
#X obj 673 340 list prepend connect;
#X obj 227 292 oscformat state info;
#X msg 227 273 1;
#X obj 598 122 f;
#X obj 56 80 spigot;
#X obj 142 248 delay 1000;
#X msg 296 216 0;
#X msg 142 269 1;
#X obj 169 210 t b b b;
#X obj 462 93 r write;
#X obj 521 94 r read;
#X obj 673 260 r port;
#X obj 547 331 r todisconect;
#X obj 640 281 r ip;
#X obj 613 99 r fsr-send;
#X obj 598 146 oscformat state FSRoffset;
#X obj 169 182 r getinfo;
#X obj 598 78 r send_FSR_offset;
#X obj 54 41 r touch_list;
#X connect 0 0 1 0;
#X connect 2 0 12 0;
#X connect 3 0 2 1;
#X connect 4 0 2 0;
#X connect 4 1 3 0;
#X connect 5 0 6 0;
#X connect 6 0 7 0;
#X connect 7 0 1 0;
#X connect 8 0 6 0;
#X connect 9 0 8 0;
#X connect 10 0 8 0;
#X connect 11 0 1 0;
#X connect 12 0 11 0;
#X connect 13 0 6 0;
#X connect 14 0 13 0;
#X connect 15 0 27 0;
#X connect 16 0 5 0;
#X connect 17 0 19 0;
#X connect 18 0 16 1;
#X connect 19 0 16 1;
#X connect 20 0 17 0;
#X connect 20 1 14 0;
#X connect 20 2 18 0;
#X connect 21 0 9 0;
#X connect 22 0 10 0;
#X connect 23 0 4 0;
#X connect 24 0 0 0;
#X connect 25 0 2 0;
#X connect 26 0 15 1;
#X connect 27 0 6 0;
#X connect 28 0 20 0;
#X connect 29 0 15 0;
#X connect 30 0 16 0;
#X restore 1142 174 pd sending_messages_to_T-Stick;
#X obj 363 245 s touch_list;
#X msg 363 210 255 255 255 255 255 255 255 255 0 0;
#X obj 348 416 r instrument;
#X obj 64 463 route all top middle bottom;
#X obj 64 507 vsl 35 135 0 1 0 0 empty empty All 0 -9 0 10 #fcfcfc
#000000 #000000 0 1;
#X floatatom 64 650 6 0 0 0 - - - 0;
#X obj 136 507 vsl 35 135 0 1 0 0 empty empty Top 0 -9 0 10 #fcfcfc
#000000 #000000 0 1;
#X floatatom 136 650 6 0 0 0 - - - 0;
#X obj 209 507 vsl 35 135 0 1 0 0 empty empty Middle 0 -9 0 10 #fcfcfc
#000000 #000000 0 1;
#X floatatom 209 650 6 0 0 0 - - - 0;
#X obj 281 507 vsl 35 135 0 1 0 0 empty empty Bottom 0 -9 0 10 #fcfcfc
#000000 #000000 0 1;
#X floatatom 281 650 6 0 0 0 - - - 0;
#X obj 370 507 vsl 35 135 -1 1 0 0 empty empty Brush 0 -9 0 10 #fcfcfc
#000000 #000000 0 1;
#X floatatom 370 650 6 0 0 0 - - - 0;
#N canvas 0 22 450 278 (subpatch) 0;
#X array multibrush 4 float 3;
#A 0 0 0 0 0;
#X coords 0 -1 4 1 60 140 1;
#X restore 444 505 graph;
#X obj 369 463 array set multibrush;
#X obj 552 507 vsl 35 135 0 10 0 0 empty empty Rub 0 -9 0 10 #fcfcfc
#000000 #000000 0 1;
#X floatatom 552 650 6 0 0 0 - - - 0;
#N canvas 0 22 450 278 (subpatch) 0;
#X array multirub 4 float 3;
#A 0 0 0 0 0;
#X coords 0 10 4 -0.1 60 140 1;
#X restore 625 505 graph;
#X obj 496 463 array set multirub;
#X obj 741 507 vsl 35 135 0 100 0 0 empty empty ShakeX 0 -9 0 10 #fcfcfc
#000000 #000000 0 1;
#X floatatom 741 650 6 0 0 0 - - - 0;
#X obj 813 507 vsl 35 135 0 10 0 0 empty empty ShakeY 0 -9 0 10 #fcfcfc
#000000 #000000 0 1;
#X floatatom 813 650 6 0 0 0 - - - 0;
#X obj 886 509 vsl 35 135 0 10 0 0 empty empty ShakeZ 0 -9 0 10 #fcfcfc
#000000 #000000 0 1;
#X floatatom 886 650 6 0 0 0 - - - 0;
#X obj 726 463 unpack f f f;
#X obj 346 437 route touch brush multibrush rub multirub shakexyz jabxyz
ypr, f 62;
#X obj 977 507 vsl 35 135 0 100 0 0 empty empty JabX 0 -9 0 10 #fcfcfc
#000000 #000000 0 1;
#X floatatom 977 650 6 0 0 0 - - - 0;
#X obj 1049 507 vsl 35 135 0 10 0 0 empty empty JabY 0 -9 0 10 #fcfcfc
#000000 #000000 0 1;
#X floatatom 1049 650 6 0 0 0 - - - 0;
#X obj 1122 507 vsl 35 135 0 10 0 0 empty empty JabZ 0 -9 0 10 #fcfcfc
#000000 #000000 0 1;
#X floatatom 1122 650 6 0 0 0 - - - 0;
#X obj 966 463 unpack f f f;
#X text 833 20 T-Stick FW200422;
#X text 833 37 Edu Meneses - IDMIL - April/2020;
#N canvas 338 38 1728 991 raw_output 0;
#X obj 87 318 vsl 45 135 -32767 32767 0 0 empty empty AccelX 0 -9 0
10 #fcfcfc #000000 #000000 0 1;
#X obj 137 318 vsl 45 135 -32767 32767 0 0 empty empty AccelY 0 -9
0 10 #fcfcfc #000000 #000000 0 1;
#X obj 187 318 vsl 45 135 -32767 32767 0 0 empty empty AccelZ 0 -9
0 10 #fcfcfc #000000 #000000 0 1;
#X obj 237 318 vsl 45 135 -41 41 0 0 empty empty GyroX 0 -9 0 10 #fcfcfc
#000000 #000000 0 1;
#X obj 287 318 vsl 45 135 -41 41 0 0 empty empty GyroY 0 -9 0 10 #fcfcfc
#000000 #000000 0 1;
#X obj 337 318 vsl 45 135 -41 41 0 0 empty empty GyroZ 0 -9 0 10 #fcfcfc
#000000 #000000 0 1;
#X obj 537 318 vsl 45 135 0 4095 0 0 empty empty Pressure 0 -9 0 10
#fcfcfc #000000 #000000 0 1;
#X obj 587 318 vsl 45 135 0 1023 0 0 empty empty Piezo 0 -9 0 10 #fcfcfc
#000000 #000000 0 1;
#X obj 387 318 vsl 45 135 -32767 32767 0 0 empty empty MagX 0 -9 0
10 #fcfcfc #000000 #000000 0 1;
#X obj 437 318 vsl 45 135 -32767 32767 0 0 empty empty MagY 0 -9 0
10 #fcfcfc #000000 #000000 0 1;
#X obj 487 318 vsl 45 135 -32767 32767 0 0 empty empty MagZ 0 -9 0
10 #fcfcfc #000000 #000000 0 1;
#X floatatom 187 461 7 0 0 0 - - - 0;
#X floatatom 237 461 7 0 0 0 - - - 0;
#X floatatom 287 461 7 0 0 0 - - - 0;
#X floatatom 337 461 7 0 0 0 - - - 0;
#X floatatom 537 461 7 0 0 0 - - - 0;
#X floatatom 587 461 7 0 0 0 - - - 0;
#X floatatom 387 461 7 0 0 0 - - - 0;
#X floatatom 437 461 7 0 0 0 - - - 0;
#X floatatom 487 461 7 0 0 0 - - - 0;
#X floatatom 137 461 7 0 0 0 - - - 0;
#X floatatom 87 461 7 0 0 0 - - - 0;
#N canvas 360 54 1728 991 cook_touch_sopranino 0;
#X obj 323 73 inlet;
#X obj 356 215 list append;
#X obj 355 242 outlet;
#X obj 358 139 list split 15;
#X connect 0 0 3 0;
#X connect 1 0 2 0;
#X connect 3 0 1 0;
#X restore 64 203 pd cook_touch_sopranino;
#X obj 83 226 unpack f f f;
#X obj 163 226 unpack f f f;
#X obj 244 226 unpack f f f;
#X text 10 299 Raw (/raw);
#X obj 524 228 route short long double;
#X obj 569 250 tgl 15 0 empty empty long -4 23 0 10 #fcfcfc #000000
#000000 0 1;
#X obj 614 250 tgl 15 0 empty empty double -9 23 0 10 #fcfcfc #000000
#000000 0 1;
#X obj 508 261 bng 15 250 50 0 empty empty short 17 7 0 10 #fcfcfc
#000000 #000000;
#X obj 489 245 sel 1;
#X obj 31 175 route capsense accl gyro magn fsr piezo button touchstrips
, f 62;
#X obj 30 12 inlet;
#X obj 70 107 unpack f f f f;
#X floatatom 71 133 10 0 0 0 - - - 0;
#X floatatom 137 133 10 0 0 0 - - - 0;
#X floatatom 203 133 10 0 0 0 - - - 0;
#X floatatom 269 133 10 0 0 0 - - - 0;
#X text 79 88 Quaternions;
#X obj 181 87 s info;
#X obj 227 87 s norm;
#X obj 274 88 s battery;
#X obj 33 63 route raw orientation ypr info norm battery instrument
;
#X obj 338 89 s instrument;
#X obj 39 240 outlet;
#X connect 0 0 21 0;
#X connect 1 0 20 0;
#X connect 2 0 11 0;
#X connect 3 0 12 0;
#X connect 4 0 13 0;
#X connect 5 0 14 0;
#X connect 6 0 15 0;
#X connect 7 0 16 0;
#X connect 8 0 17 0;
#X connect 9 0 18 0;
#X connect 10 0 19 0;
#X connect 22 0 45 0;
#X connect 23 0 0 0;
#X connect 23 1 1 0;
#X connect 23 2 2 0;
#X connect 24 0 3 0;
#X connect 24 1 4 0;
#X connect 24 2 5 0;
#X connect 25 0 8 0;
#X connect 25 1 9 0;
#X connect 25 2 10 0;
#X connect 27 0 31 0;
#X connect 27 1 28 0;
#X connect 27 2 29 0;
#X connect 31 0 30 0;
#X connect 32 0 22 0;
#X connect 32 1 23 0;
#X connect 32 2 24 0;
#X connect 32 3 25 0;
#X connect 32 4 6 0;
#X connect 32 5 7 0;
#X connect 32 6 27 0;
#X connect 33 0 43 0;
#X connect 34 0 35 0;
#X connect 34 1 36 0;
#X connect 34 2 37 0;
#X connect 34 3 38 0;
#X connect 43 0 32 0;
#X connect 43 1 34 0;
#X connect 43 3 40 0;
#X connect 43 4 41 0;
#X connect 43 5 42 0;
#X connect 43 6 44 0;
#X restore 201 294 pd raw_output;
#X text 57 966 energy;
#X text 195 966 frequency;
#X text 333 965 timbre;
#X text 473 969 cutoff;
#X text 610 968 resonance;
#X text 749 970 reverb;
#N canvas 0 26 2524 1395 norm_sensor_output 0;
#X obj 97 157 vsl 45 135 -1 1 0 0 empty empty AccelX 0 -9 0 10 #fcfcfc
#000000 #000000 0 1;
#X obj 147 157 vsl 45 135 -1 1 0 0 empty empty AccelY 0 -9 0 10 #fcfcfc
#000000 #000000 0 1;
#X obj 197 157 vsl 45 135 -1 1 0 0 empty empty AccelZ 0 -9 0 10 #fcfcfc
#000000 #000000 0 1;
#X obj 247 157 vsl 45 135 -1 1 0 0 empty empty GyroX 0 -9 0 10 #fcfcfc
#000000 #000000 0 1;
#X obj 297 157 vsl 45 135 -1 1 0 0 empty empty GyroY 0 -9 0 10 #fcfcfc
#000000 #000000 0 1;
#X obj 347 157 vsl 45 135 -1 1 0 0 empty empty GyroZ 0 -9 0 10 #fcfcfc
#000000 #000000 0 1;
#X obj 547 157 vsl 45 135 0 1 0 0 empty empty Pressure 0 -9 0 10 #fcfcfc
#000000 #000000 0 1;
#X obj 597 157 vsl 45 135 0 1 0 0 empty empty Piezo 0 -9 0 10 #fcfcfc
#000000 #000000 0 1;
#X obj 397 157 vsl 45 135 -1 1 0 0 empty empty MagX 0 -9 0 10 #fcfcfc
#000000 #000000 0 1;
#X obj 447 157 vsl 45 135 -1 1 0 0 empty empty MagY 0 -9 0 10 #fcfcfc
#000000 #000000 0 1;
#X obj 497 157 vsl 45 135 -1 1 0 0 empty empty MagZ 0 -9 0 10 #fcfcfc
#000000 #000000 0 1;
#X floatatom 197 300 7 0 0 0 - - - 0;
#X floatatom 247 300 7 0 0 0 - - - 0;
#X floatatom 297 300 7 0 0 0 - - - 0;
#X floatatom 347 300 7 0 0 0 - - - 0;
#X floatatom 547 300 7 0 0 0 - - - 0;
#X floatatom 597 300 7 0 0 0 - - - 0;
#X floatatom 397 300 7 0 0 0 - - - 0;
#X floatatom 447 300 7 0 0 0 - - - 0;
#X floatatom 497 300 7 0 0 0 - - - 0;
#X floatatom 147 300 7 0 0 0 - - - 0;
#X floatatom 97 300 7 0 0 0 - - - 0;
#X obj 218 107 unpack f f f;
#X obj 298 107 unpack f f f;
#X obj 379 107 unpack f f f;
#X obj 194 54 route capsense accl gyro magn fsr piezo, f 62;
#X obj 147 38 r norm;
#X text 20 114 Normalized (/norm);
#X obj 547 326 outlet;
#X connect 0 0 21 0;
#X connect 1 0 20 0;
#X connect 2 0 11 0;
#X connect 3 0 12 0;
#X connect 4 0 13 0;
#X connect 5 0 14 0;
#X connect 6 0 15 0;
#X connect 7 0 16 0;
#X connect 8 0 17 0;
#X connect 9 0 18 0;
#X connect 10 0 19 0;
#X connect 15 0 28 0;
#X connect 22 0 0 0;
#X connect 22 1 1 0;
#X connect 22 2 2 0;
#X connect 23 0 3 0;
#X connect 23 1 4 0;
#X connect 23 2 5 0;
#X connect 24 0 8 0;
#X connect 24 1 9 0;
#X connect 24 2 10 0;
#X connect 25 1 22 0;
#X connect 25 2 23 0;
#X connect 25 3 24 0;
#X connect 25 4 6 0;
#X connect 25 5 7 0;
#X connect 26 0 25 0;
#X restore 335 295 pd norm_sensor_output;
#X text 310 267 <--- Change T-Stick NAME!;
#X obj 62 1005 hsl 128 15 0 1 0 0 empty empty empty -2 -8 0 10 #fcfcfc
#000000 #000000 0 1;
#X obj 201 1006 hsl 128 15 0 1 0 0 empty empty empty -2 -8 0 10 #fcfcfc
#000000 #000000 0 1;
#X obj 339 1007 hsl 128 15 0 1 0 0 empty empty empty -2 -8 0 10 #fcfcfc
#000000 #000000 0 1;
#X obj 478 1008 hsl 128 15 0 1 0 0 empty empty empty -2 -8 0 10 #fcfcfc
#000000 #000000 0 1;
#X obj 616 1008 hsl 128 15 0 1 0 0 empty empty empty -2 -8 0 10 #fcfcfc
#000000 #000000 0 1;
#X obj 754 1009 hsl 128 15 0 1 0 0 empty empty empty -2 -8 0 10 #fcfcfc
#000000 #000000 0 1;
#X obj 44 539 vradio 15 1 0 7 empty sel-ta empty 0 -8 0 10 #fcfcfc
#fc0400 #fc0400 0;
#X obj 59 984 r energy;
#X obj 198 984 r freq;
#X obj 336 984 r timbre;
#X obj 476 988 r cut;
#X obj 614 987 r res;
#X obj 752 988 r rev;
#X text 31 554 e;
#X text 31 568 f;
#X text 31 583 t;
#X text 31 599 c;
#X text 31 613 r;
#X text 31 628 v;
#X obj 117 539 vradio 15 1 0 7 empty sel-tt empty 0 -8 0 10 #fcfcfc
#fc0400 #fc0400 0;
#X text 104 554 e;
#X text 104 568 f;
#X text 104 583 t;
#X text 104 599 c;
#X text 104 613 r;
#X text 104 628 v;
#X obj 190 539 vradio 15 1 0 7 empty sel-tm empty 0 -8 0 10 #fcfcfc
#fc0400 #fc0400 0;
#X text 177 554 e;
#X text 177 568 f;
#X text 177 583 t;
#X text 177 599 c;
#X text 177 613 r;
#X text 177 628 v;
#X obj 262 539 vradio 15 1 0 7 empty sel-tb empty 0 -8 0 10 #fcfcfc
#fc0400 #fc0400 0;
#X text 249 554 e;
#X text 249 568 f;
#X text 249 583 t;
#X text 249 599 c;
#X text 249 613 r;
#X text 249 628 v;
#X obj 352 539 vradio 15 1 0 7 empty sel-br empty 0 -8 0 10 #fcfcfc
#fc0400 #fc0400 0;
#X symbolatom 343 691 10 0 0 0 - - - 0;
#X text 339 554 e;
#X text 339 568 f;
#X text 339 583 t;
#X text 339 599 c;
#X text 339 613 r;
#X text 339 628 v;
#X obj 343 648 rt;
#X obj 423 539 vradio 15 1 0 7 empty sel-mb empty 0 -8 0 10 #fcfcfc
#fc0400 #fc0400 0;
#X symbolatom 423 691 10 0 0 0 - - - 0;
#X text 410 554 e;
#X text 410 568 f;
#X text 410 583 t;
#X text 410 599 c;
#X text 410 613 r;
#X text 410 628 v;
#X obj 423 648 rt;
#X obj 532 539 vradio 15 1 0 7 empty sel-ru empty 0 -8 0 10 #fcfcfc
#fc0400 #fc0400 0;
#X symbolatom 523 691 10 0 0 0 - - - 0;
#X text 519 554 e;
#X text 519 568 f;
#X text 519 583 t;
#X text 519 599 c;
#X text 519 613 r;
#X text 519 628 v;
#X obj 523 648 rt;
#X obj 606 539 vradio 15 1 0 7 empty sel-mr empty 0 -8 0 10 #fcfcfc
#fc0400 #fc0400 0;
#X symbolatom 597 691 10 0 0 0 - - - 0;
#X text 593 554 e;
#X text 593 568 f;
#X text 593 583 t;
#X text 593 599 c;
#X text 593 613 r;
#X text 593 628 v;
#X obj 605 648 rt;
#X obj 620 464 t f;
#X obj 722 539 vradio 15 1 0 7 empty sel-sx empty 0 -8 0 10 #fcfcfc
#fc0400 #fc0400 0;
#X text 709 554 e;
#X text 709 568 f;
#X text 709 583 t;
#X text 709 599 c;
#X text 709 613 r;
#X text 709 628 v;
#X obj 713 648 rt;
#X obj 794 539 vradio 15 1 0 7 empty sel-sy empty 0 -8 0 10 #fcfcfc
#fc0400 #fc0400 0;
#X text 781 554 e;
#X text 781 568 f;
#X text 781 583 t;
#X text 781 599 c;
#X text 781 613 r;
#X text 781 628 v;
#X obj 785 648 rt;
#X obj 866 539 vradio 15 1 0 7 empty sel-sz empty 0 -8 0 10 #fcfcfc
#fc0400 #fc0400 0;
#X text 853 554 e;
#X text 853 568 f;
#X text 853 583 t;
#X text 853 599 c;
#X text 853 613 r;
#X text 853 628 v;
#X obj 857 648 rt;
#X obj 959 539 vradio 15 1 0 7 empty sel-jx empty 0 -8 0 10 #fcfcfc
#fc0400 #fc0400 0;
#X text 946 554 e;
#X text 946 568 f;
#X text 946 583 t;
#X text 946 599 c;
#X text 946 613 r;
#X text 946 628 v;
#X obj 950 648 rt;
#X obj 1030 539 vradio 15 1 0 7 empty sel-jy empty 0 -8 0 10 #fcfcfc
#fc0400 #fc0400 0;
#X text 1017 554 e;
#X text 1017 568 f;
#X text 1017 583 t;
#X text 1017 599 c;
#X text 1017 613 r;
#X text 1017 628 v;
#X obj 1021 648 rt;
#X obj 1103 539 vradio 15 1 0 7 empty sel-jz empty 0 -8 0 10 #fcfcfc
#fc0400 #fc0400 0;
#X text 1090 554 e;
#X text 1090 568 f;
#X text 1090 583 t;
#X text 1090 599 c;
#X text 1090 613 r;
#X text 1090 628 v;
#X obj 1093 653 rt;
#X obj 1207 507 vsl 35 135 0 100 0 0 empty empty Yaw 0 -9 0 10 #fcfcfc
#000000 #000000 0 1;
#X floatatom 1207 650 6 0 0 0 - - - 0;
#X obj 1279 507 vsl 35 135 -100 100 0 0 empty empty Pitch 0 -9 0 10
#fcfcfc #000000 #000000 0 1;
#X floatatom 1279 650 6 0 0 0 - - - 0;
#X obj 1352 507 vsl 35 135 -100 100 0 0 empty empty Roll 0 -9 0 10
#fcfcfc #000000 #000000 0 1;
#X floatatom 1352 650 6 0 0 0 - - - 0;
#X obj 1191 533 vradio 15 1 0 7 empty sel-ya empty 0 -8 0 10 #fcfcfc
#fc0400 #fc0400 0;
#X symbolatom 1180 691 10 0 0 0 - - - 0;
#X text 1176 554 e;
#X text 1176 568 f;
#X text 1176 583 t;
#X text 1176 599 c;
#X text 1176 613 r;
#X text 1176 628 v;
#X obj 1180 648 rt;
#X obj 1260 539 vradio 15 1 0 7 empty sel-pi empty 0 -8 0 10 #fcfcfc
#fc0400 #fc0400 0;
#X text 1247 554 e;
#X text 1247 568 f;
#X text 1247 583 t;
#X text 1247 599 c;
#X text 1247 613 r;
#X text 1247 628 v;
#X obj 1333 539 vradio 15 1 0 7 empty sel-ro empty 0 -8 0 10 #fcfcfc
#fc0400 #fc0400 0;
#X text 1320 554 e;
#X text 1320 568 f;
#X text 1320 583 t;
#X text 1320 599 c;
#X text 1320 613 r;
#X text 1320 628 v;
#N canvas 150 150 1319 300 selector-presets 0;
#X obj 27 195 s sel-ta;
#X obj 87 195 s sel-tt;
#X obj 147 195 s sel-tm;
#X obj 207 195 s sel-tb;
#X obj 267 195 s sel-br;
#X obj 327 195 s sel-mb;
#X obj 387 195 s sel-ru;
#X obj 447 195 s sel-mr;
#X obj 507 195 s sel-sx;
#X obj 567 195 s sel-sy;
#X obj 627 195 s sel-sz;
#X obj 687 195 s sel-jx;
#X obj 747 195 s sel-jy;
#X obj 807 195 s sel-jz;
#X obj 867 195 s sel-ya;
#X obj 927 195 s sel-pi;
#X obj 987 195 s sel-ro;
#X obj 26 145 unpack 0 0 0 0 0 0 0 0 0 0 0 0 0 0 0 0 0 0, f 171;
#X obj 26 105 inlet;
#X connect 17 0 0 0;
#X connect 17 1 1 0;
#X connect 17 2 2 0;
#X connect 17 3 3 0;
#X connect 17 4 4 0;
#X connect 17 5 5 0;
#X connect 17 6 6 0;
#X connect 17 7 7 0;
#X connect 17 8 8 0;
#X connect 17 9 9 0;
#X connect 17 10 10 0;
#X connect 17 11 11 0;
#X connect 17 12 12 0;
#X connect 17 13 13 0;
#X connect 17 14 14 0;
#X connect 17 15 15 0;
#X connect 17 16 16 0;
#X connect 18 0 17 0;
#X restore 535 388 pd selector-presets;
#X obj 532 323 loadbang;
#X text 532 348 Update this string w/ 17 values (0-6) to auto load
desired mapping., f 69;
#X msg 535 366 0 0 0 0 0 0 0 0 0 0 0 0 0 0 0 0 0 0, f 62;
#X text 42 520 1;
#X text 114 520 2;
#X text 186 520 3;
#X text 259 520 4;
#X text 349 520 5;
#X text 421 521 6;
#X text 529 521 7;
#X text 604 521 8;
#X text 718 521 9;
#X text 791 521 10;
#X text 863 521 11;
#X text 955 521 12;
#X text 1028 521 13;
#X text 1100 521 14;
#X text 1185 521 15;
#X text 1258 521 16;
#X text 1329 521 17;
#X obj 370 672 expr ($f1+1)/2;
#X obj 553 671 / 10;
#X obj 1049 671 / 10;
#X obj 1122 671 / 10;
#X obj 979 671 / 100;
#X text 54 359 MAPPING INSTRUCTIONS: route the output of T-stick to
any of the 6 synth inputs using the radio buttons below. Once the mappings
are set \, can set the 'selector-presets' message to recall mapping
on patch load.;
#X obj 1434 507 vsl 35 135 0 1 0 0 empty empty Pressure 0 -9 0 10 #fcfcfc
#000000 #000000 0 1;
#X floatatom 1434 650 6 0 0 0 - - - 0;
#X obj 1414 539 vradio 15 1 0 7 empty sel-ta empty 0 -8 0 10 #fcfcfc
#fc0400 #fc0400 0;
#X text 1401 554 e;
#X text 1401 568 f;
#X text 1401 583 t;
#X text 1401 599 c;
#X text 1401 613 r;
#X text 1401 628 v;
#X text 1412 520 18;
#X obj 1449 461 r pres;
#X obj 335 316 s pres;
#X msg 157 81 192.168.1.109 8888;
#X obj 1209 671 / 180;
#X obj 1279 671 / 180;
#X obj 1352 671 / 180;
#X obj 948 873 + 0;
#X obj 1016 763 + 0;
#X obj 743 706 + 0;
#X obj 811 696 + 0;
#X obj 742 775 s rev;
#X obj 948 898 s cut;
#X obj 1117 694 t b f;
#X obj 1016 718 f;
#X obj 1016 793 t b f;
#X obj 946 739 f;
#X obj 1376 722 abs;
#X obj 1281 726 abs;
#X obj 1121 735 abs;
#X obj 1007 740 abs;
#X obj 1043 823 abs;
#X obj 948 848 abs;
#X obj 813 671 / 10;
#X obj 887 678 / 10;
#X obj 886 701 t b f;
#X obj 811 720 t b f;
#X obj 1447 756 s energy;
#X obj 743 671 / 100;
#X obj 1277 757 s res;
#X obj 1377 752 s timbre;
#X obj 743 723 / 3;
#X obj 742 749 leaky_integrator 20 0.05 1.1;
#X obj 202 331 array set Touch;
#X obj 1691 935 s freq;
#X obj 1692 908 f;
#X obj 898 982 r ShakerDepth;
#X obj 1056 989 r ShakerRate;
#X obj 901 1003 hsl 128 15 0 1 0 0 empty empty empty -2 -8 0 10 #fcfcfc
#000000 #000000 0 1;
#X obj 1057 1004 hsl 128 15 0 1 0 0 empty empty empty -2 -8 0 10 #fcfcfc
#000000 #000000 0 1;
#X obj 1986 1015 s ShakerDepth;
#X obj 655 853 s ShakerRate;
#X floatatom 757 831 5 0 0 0 - - - 0;
#N canvas 38 50 450 250 (subpatch) 0;
#X array Touch 15 float 3;
#A 0 1 0 0 0 0 0 0 0 0 0 0 0 1 0 1;
#X coords 0 2 15 0 200 140 1 0 0;
#X restore 1552 436 graph;
#X obj 301 335 s Touch;
#X obj 1566 595 r Touch;
#X obj 1569 711 sel 1;
#X obj 1616 717 sel 1;
#X obj 1660 717 sel 1;
#X obj 1661 749 f 0.6;
#X obj 1713 718 sel 1;
#X obj 1771 722 sel 1;
#X obj 1563 627 unpack i i i i i i i i i i i i i i i;
#X obj 2129 758 t b f;
#X obj 2134 794 + 0;
#X obj 2043 756 t b f;
#X obj 2048 792 + 0;
#X obj 1969 750 t b f;
#X obj 1974 786 + 0;
#X obj 1888 788 t b f;
#X obj 1893 824 + 0;
#X obj 1925 857 t b f;
#X obj 1930 893 + 0;
#X obj 1984 877 t b f;
#X obj 1989 913 + 0;
#X obj 1876 701 >= 1;
#X obj 1919 705 >= 1;
#X obj 1955 706 >= 1;
#X obj 2000 706 >= 1;
#X obj 2042 709 >= 1;
#X obj 2079 711 >= 1;
#X obj 2117 712 >= 1;
#X obj 1548 857 bng 15 250 50 0 empty empty empty 17 7 0 10 #fcfcfc
#000000 #000000;
#X obj 1571 856 bng 15 250 50 0 empty empty empty 17 7 0 10 #fcfcfc
#000000 #000000;
#X obj 1549 898 bng 15 250 50 0 empty empty empty 17 7 0 10 #fcfcfc
#000000 #000000;
#X obj 1572 897 bng 15 250 50 0 empty empty empty 17 7 0 10 #fcfcfc
#000000 #000000;
#X obj 1598 915 bng 15 250 50 0 empty empty empty 17 7 0 10 #fcfcfc
#000000 #000000;
#X obj 202 268 route T-Stick_311;
#X obj 1990 951 >= 6;
#X obj 1617 749 f 0.4;
#X obj 1714 750 f 0.8;
#X obj 1772 754 f 1;
#X obj 57 1063 dac~ 5 6;
#X obj 1570 743 f 0.4;
#X obj 59 1028 synth_PDR, f 116;
#X connect 1 0 2 0;
#X connect 2 0 6 0;
#X connect 3 0 1 0;
#X connect 3 1 1 1;
#X connect 4 0 3 0;
#X connect 6 0 7 0;
#X connect 8 0 25 0;
#X connect 9 0 10 0;
#X connect 9 0 15 0;
#X connect 10 0 23 0;
#X connect 12 0 9 0;
#X connect 13 0 12 0;
#X connect 14 0 27 0;
#X connect 14 0 28 0;
#X connect 22 0 48 0;
#X connect 22 1 47 0;
#X connect 23 0 371 0;
#X connect 24 0 13 0;
#X connect 25 0 26 0;
#X connect 26 0 13 0;
#X connect 26 1 12 0;
#X connect 27 0 45 0;
#X connect 28 0 29 0;
#X connect 28 1 24 0;
#X connect 28 2 297 0;
#X connect 29 0 25 0;
#X connect 30 0 28 0;
#X connect 31 0 52 0;
#X connect 34 0 35 0;
#X connect 35 0 36 0;
#X connect 35 1 46 0;
#X connect 36 0 47 0;
#X connect 36 1 48 0;
#X connect 42 0 41 0;
#X connect 44 0 41 2;
#X connect 44 0 229 0;
#X connect 44 1 41 3;
#X connect 44 1 231 0;
#X connect 44 2 41 4;
#X connect 44 2 233 0;
#X connect 50 0 51 0;
#X connect 52 0 53 0;
#X connect 52 1 54 0;
#X connect 53 0 32 0;
#X connect 53 1 33 0;
#X connect 53 2 49 0;
#X connect 54 0 59 0;
#X connect 59 0 58 0;
#X connect 60 0 85 0;
#X connect 61 0 62 0;
#X connect 61 1 64 0;
#X connect 61 2 66 0;
#X connect 61 3 68 0;
#X connect 62 0 63 0;
#X connect 64 0 65 0;
#X connect 66 0 67 0;
#X connect 68 0 69 0;
#X connect 70 0 71 0;
#X connect 71 0 279 0;
#X connect 74 0 75 0;
#X connect 75 0 280 0;
#X connect 78 0 79 0;
#X connect 79 0 322 0;
#X connect 80 0 81 0;
#X connect 81 0 317 0;
#X connect 82 0 83 0;
#X connect 83 0 318 0;
#X connect 84 0 78 0;
#X connect 84 1 80 0;
#X connect 84 2 82 0;
#X connect 85 0 61 0;
#X connect 85 1 70 0;
#X connect 85 2 73 0;
#X connect 85 2 161 1;
#X connect 85 3 74 0;
#X connect 85 4 77 0;
#X connect 85 4 180 0;
#X connect 85 5 84 0;
#X connect 85 6 92 0;
#X connect 85 7 44 0;
#X connect 86 0 87 0;
#X connect 88 0 89 0;
#X connect 89 0 281 0;
#X connect 90 0 91 0;
#X connect 91 0 282 0;
#X connect 92 0 86 0;
#X connect 92 1 88 0;
#X connect 92 2 90 0;
#X connect 95 0 327 0;
#X connect 95 0 338 0;
#X connect 102 0 296 0;
#X connect 104 0 378 0;
#X connect 105 0 378 1;
#X connect 106 0 378 2;
#X connect 107 0 378 3;
#X connect 108 0 378 4;
#X connect 109 0 378 5;
#X connect 111 0 104 0;
#X connect 112 0 105 0;
#X connect 113 0 106 0;
#X connect 114 0 107 0;
#X connect 115 0 108 0;
#X connect 116 0 109 0;
#X connect 144 0 152 0;
#X connect 152 0 145 0;
#X connect 153 0 161 0;
#X connect 161 0 154 0;
#X connect 162 0 170 0;
#X connect 170 0 163 0;
#X connect 171 0 179 0;
#X connect 179 0 172 0;
#X connect 180 0 179 1;
#X connect 181 0 188 0;
#X connect 189 0 196 0;
#X connect 197 0 204 0;
#X connect 205 0 212 0;
#X connect 213 0 220 0;
#X connect 221 0 228 0;
#X connect 229 0 230 0;
#X connect 230 0 298 0;
#X connect 231 0 232 0;
#X connect 232 0 299 0;
#X connect 233 0 234 0;
#X connect 234 0 300 0;
#X connect 235 0 243 0;
#X connect 243 0 236 0;
#X connect 259 0 261 0;
#X connect 261 0 258 0;
#X connect 279 0 152 1;
#X connect 280 0 170 1;
#X connect 281 0 308 0;
#X connect 281 0 308 1;
#X connect 282 0 228 1;
#X connect 282 0 307 0;
#X connect 283 0 212 1;
#X connect 283 0 310 0;
#X connect 283 0 310 1;
#X connect 285 0 286 0;
#X connect 286 0 321 0;
#X connect 295 0 285 0;
#X connect 297 0 22 0;
#X connect 298 0 243 1;
#X connect 299 0 312 0;
#X connect 300 0 311 0;
#X connect 301 0 306 0;
#X connect 302 0 309 0;
#X connect 303 0 325 0;
#X connect 304 0 320 0;
#X connect 307 0 308 0;
#X connect 307 1 313 0;
#X connect 308 0 314 0;
#X connect 309 0 310 0;
#X connect 309 1 315 0;
#X connect 310 0 316 0;
#X connect 311 0 324 0;
#X connect 312 0 323 0;
#X connect 313 0 302 1;
#X connect 314 0 302 0;
#X connect 315 0 301 1;
#X connect 316 0 301 0;
#X connect 317 0 196 1;
#X connect 317 0 304 0;
#X connect 318 0 204 1;
#X connect 318 0 319 0;
#X connect 319 0 304 0;
#X connect 319 1 304 1;
#X connect 320 0 303 0;
#X connect 320 1 303 1;
#X connect 322 0 188 1;
#X connect 322 0 303 0;
#X connect 325 0 326 0;
#X connect 326 0 305 0;
#X connect 326 0 335 0;
#X connect 326 0 336 0;
#X connect 329 0 328 0;
#X connect 330 0 332 0;
#X connect 331 0 333 0;
#X connect 332 0 378 6;
#X connect 333 0 378 7;
#X connect 339 0 346 0;
#X connect 340 0 366 0;
#X connect 340 0 377 0;
#X connect 341 0 367 0;
#X connect 341 0 373 0;
#X connect 342 0 343 0;
#X connect 342 0 368 0;
#X connect 343 0 329 0;
#X connect 344 0 369 0;
#X connect 344 0 374 0;
#X connect 345 0 370 0;
#X connect 345 0 375 0;
#X connect 346 0 340 0;
#X connect 346 0 359 0;
#X connect 346 1 340 0;
#X connect 346 1 360 0;
#X connect 346 2 340 0;
#X connect 346 2 361 0;
#X connect 346 3 341 0;
#X connect 346 4 341 0;
#X connect 346 5 341 0;
#X connect 346 6 342 0;
#X connect 346 7 342 0;
#X connect 346 8 342 0;
#X connect 346 9 344 0;
#X connect 346 10 344 0;
#X connect 346 11 344 0;
#X connect 346 11 362 0;
#X connect 346 12 345 0;
#X connect 346 12 363 0;
#X connect 346 13 345 0;
#X connect 346 13 364 0;
#X connect 346 14 345 0;
#X connect 346 14 365 0;
#X connect 347 0 348 0;
#X connect 347 1 348 1;
#X connect 348 0 357 0;
#X connect 349 0 350 0;
#X connect 349 1 350 1;
#X connect 350 0 355 0;
#X connect 351 0 352 0;
#X connect 351 1 352 1;
#X connect 352 0 354 0;
#X connect 353 0 354 0;
#X connect 353 1 354 1;
#X connect 354 0 356 0;
#X connect 355 0 356 0;
#X connect 355 1 356 1;
#X connect 356 0 358 0;
#X connect 357 0 358 0;
#X connect 357 1 358 1;
#X connect 358 0 372 0;
#X connect 359 0 353 0;
#X connect 360 0 352 0;
#X connect 361 0 351 0;
#X connect 362 0 350 0;
#X connect 363 0 349 0;
#X connect 364 0 348 0;
#X connect 365 0 347 0;
#X connect 371 0 95 0;
#X connect 372 0 334 0;
#X connect 373 0 329 0;
#X connect 374 0 329 0;
#X connect 375 0 329 0;
#X connect 377 0 329 0;
#X connect 378 0 376 0;
#X connect 378 1 376 1;
#X coords 0 -1 1 1 470 216 1 354 22;
