#N canvas 36 23 1280 800 12;
#N canvas 0 49 924 1001 fb-fm-osc 0;
#X obj 80 97 phasor~;
#X msg 149 46 \$1 10;
#X obj 149 70 line~;
#X obj 21 160 *~, f 9;
#X msg 20 42 \$1 10;
#X obj 20 67 line~;
#N canvas 0 49 924 1001 fb-fm-core 0;
#X obj 29 98 +~;
#X obj 29 123 cos~;
#X obj 175 146 block~ 1;
#X obj 88 156 *~;
#X obj 175 116 array define fm-fb 1;
#X obj 29 28 inlet~;
#X obj 174 193 tabsend~ fm-fb;
#X obj 175 52 *~ 0.5;
#X obj 175 27 tabreceive~ fm-fb;
#X obj 107 27 inlet~;
#X obj 29 193 outlet~;
#X obj 175 77 rzero~ -1;
#X connect 0 0 1 0;
#X connect 1 0 3 0;
#X connect 1 0 10 0;
#X connect 3 0 6 0;
#X connect 5 0 0 0;
#X connect 7 0 11 0;
#X connect 8 0 7 0;
#X connect 9 0 3 1;
#X connect 11 0 0 1;
#X restore 80 127 pd fb-fm-core;
#X obj 81 68 line~;
#X obj 81 18 inlet;
#X obj 149 22 inlet;
#X obj 20 17 inlet;
#X obj 21 207 outlet~;
#X msg 81 43 \$1 50;
#X connect 0 0 6 0;
#X connect 1 0 2 0;
#X connect 2 0 6 1;
#X connect 3 0 11 0;
#X connect 4 0 5 0;
#X connect 5 0 3 0;
#X connect 6 0 3 1;
#X connect 7 0 0 0;
#X connect 8 0 12 0;
#X connect 9 0 1 0;
#X connect 10 0 4 0;
#X connect 12 0 7 0;
#X restore 148 208 pd fb-fm-osc;
#N canvas 0 49 924 1001 logistinette 0;
#N canvas 924 49 756 227 breath 0;
#X obj 25 19 inlet;
#X obj 26 254 outlet~;
#X msg 25 44 \$1 10;
#X obj 25 69 line~;
#X obj 26 209 +~;
#X obj 85 139 *~;
#X obj 103 106 noise~;
#X obj 45 168 *~, f 6;
#X obj 87 66 sig~;
#X obj 85 15 loadbang;
#X msg 85 40 0.02;
#X connect 0 0 2 0;
#X connect 2 0 3 0;
#X connect 3 0 4 0;
#X connect 3 0 7 0;
#X connect 4 0 1 0;
#X connect 5 0 7 1;
#X connect 6 0 5 1;
#X connect 7 0 4 1;
#X connect 8 0 5 0;
#X connect 9 0 10 0;
#X connect 10 0 8 0;
#X restore 30 83 pd breath;
#N canvas 0 49 924 1001 reed 0;
#X obj 206 130 inlet~;
#X obj 190 53 inlet~;
#X obj 207 164 +~ 1e-06;
#X obj 207 189 clip~ 0 1;
#X obj 232 215 *~ -1;
#X obj 232 240 +~ 1;
#X obj 208 265 *~, f 4;
#X obj 191 292 *~;
#X obj 190 78 *~ 1.3;
#X obj 190 103 +~ 2.7;
#X obj 191 317 outlet~;
#X connect 0 0 2 0;
#X connect 1 0 8 0;
#X connect 2 0 3 0;
#X connect 3 0 4 0;
#X connect 3 0 6 0;
#X connect 4 0 5 0;
#X connect 5 0 6 1;
#X connect 6 0 7 1;
#X connect 7 0 10 0;
#X connect 8 0 9 0;
#X connect 9 0 7 0;
#X restore 30 249 pd reed;
#X obj 145 35 inlet;
#X obj 144 92 delread4~ bore;
#X obj 144 144 *~ 2;
#X obj 144 169 -~ 1;
#X obj 144 194 hip~ 5;
#N canvas 0 49 924 1001 hz-to-ms 0;
#X obj 34 175 line~;
#X obj 34 75 pack 1 f;
#X obj 55 43 t b f;
#X obj 34 100 /;
#X obj 34 125 * 1000;
#X obj 57 12 inlet;
#X obj 34 200 outlet~;
#X msg 34 150 \$1 50;
#X connect 0 0 6 0;
#X connect 1 0 3 0;
#X connect 2 0 1 0;
#X connect 2 1 1 1;
#X connect 3 0 4 0;
#X connect 4 0 7 0;
#X connect 5 0 2 0;
#X connect 7 0 0 0;
#X restore 145 66 pd hz-to-ms;
#X obj 144 219 outlet~;
#X obj 30 35 inlet;
#X obj 145 118 lop~ 4000, f 16;
#X obj 31 276 delwrite~ bore 96000;
#X connect 0 0 1 0;
#X connect 1 0 11 0;
#X connect 2 0 7 0;
#X connect 3 0 10 0;
#X connect 4 0 5 0;
#X connect 5 0 6 0;
#X connect 6 0 8 0;
#X connect 7 0 3 0;
#X connect 9 0 0 0;
#X connect 10 0 1 1;
#X connect 10 0 4 0;
#X restore 10 208 pd logistinette;
#X obj 11 77 hsl 128 15 0 127 0 0 empty empty empty -2 -8 0 10 -262144
-1 -1 0 1;
#X obj 291 77 hsl 128 15 0 127 0 0 empty empty empty -2 -8 0 10 -262144
-1 -1 6233 1;
#X obj 288 101 / 127;
#X obj 9 101 / 127;
#X obj 8 50 * 127;
#X obj 8 22 r energy;
#X obj 288 22 r timbre;
#X obj 288 49 * 127;
#X floatatom 153 176 5 0 0 0 - - -;
#X obj 153 151 mtof;
#X obj 738 77 hsl 128 15 0 127 0 0 empty empty empty -2 -8 0 10 -262144
-1 -1 0 1;
#X obj 735 313 / 127;
#X obj 735 49 * 127;
#X obj 735 22 r reverb;
#X obj 85 1116 rev3~ 110 50 3000 0, f 29;
#X obj 205 1088 + 70;
#X obj 205 1063 * 25;
#X obj 12 298 bob~, f 84;
#X obj 442 177 mtof;
#X obj 598 77 hsl 128 15 0 127 0 0 empty empty empty -2 -8 0 10 -262144
-1 -1 1559 1;
#X obj 595 231 / 127;
#X obj 595 49 * 127;
#X obj 595 22 r resonance;
#X obj 595 256 * 5;
#X obj 442 227 line~;
#X obj 57 101 / 160;
#X obj 102 101 / 150;
#N canvas 0 49 924 1001 osc-xfade 0;
#X obj 35 212 +~;
#X obj 36 186 *~;
#X obj 115 188 *~;
#X obj 53 82 * -1;
#X obj 53 107 + 1;
#X msg 53 132 \$1 10;
#X obj 53 157 line~;
#X msg 130 127 \$1 10;
#X obj 130 152 line~;
#X obj 22 34 inlet~;
#X obj 79 33 inlet~;
#X obj 135 34 inlet;
#X obj 35 237 outlet~;
#X connect 0 0 12 0;
#X connect 1 0 0 0;
#X connect 2 0 0 1;
#X connect 3 0 4 0;
#X connect 4 0 5 0;
#X connect 5 0 6 0;
#X connect 6 0 1 1;
#X connect 7 0 8 0;
#X connect 8 0 2 1;
#X connect 9 0 1 0;
#X connect 10 0 2 0;
#X connect 11 0 7 0;
#X connect 11 0 3 0;
#X restore 11 251 pd osc-xfade;
#X f 40;
#N canvas 0 26 2560 1414 rev-xfade 0;
#X obj 30 270 +~;
#X obj 29 221 *~;
#X obj 108 196 *~;
#X obj 46 92 * -1;
#X obj 46 117 + 1;
#X msg 46 142 \$1 10;
#X obj 46 167 line~;
#X msg 125 137 \$1 10;
#X obj 125 162 line~;
#X obj 185 196 *~;
#X msg 202 137 \$1 10;
#X obj 202 162 line~;
#X obj 168 270 +~;
#X obj 108 221 *~ 0.5;
#X obj 185 221 *~ 0.5;
#X obj 29 41 inlet~;
#X obj 107 41 inlet~;
#X obj 185 41 inlet~;
#X obj 276 41 inlet;
#X obj 30 302 outlet~;
#X obj 168 302 outlet~;
#X connect 0 0 19 0;
#X connect 1 0 0 0;
#X connect 1 0 12 0;
#X connect 2 0 13 0;
#X connect 3 0 4 0;
#X connect 4 0 5 0;
#X connect 5 0 6 0;
#X connect 6 0 1 1;
#X connect 7 0 8 0;
#X connect 8 0 2 1;
#X connect 9 0 14 0;
#X connect 10 0 11 0;
#X connect 11 0 9 1;
#X connect 12 0 20 0;
#X connect 13 0 0 1;
#X connect 14 0 12 1;
#X connect 15 0 1 0;
#X connect 16 0 2 0;
#X connect 17 0 9 0;
#X connect 18 0 3 0;
#X connect 18 0 7 0;
#X connect 18 0 10 0;
#X restore 22 1154 pd rev-xfade;
#X f 28;
#X obj 78 22 inlet;
#X obj 240 22 inlet;
#X obj 358 22 inlet;
#X obj 690 22 inlet;
#X obj 509 22 inlet;
#X obj 809 22 inlet;
#X obj 153 125 * 78;
#X obj 156 77 hsl 128 15 0 127 0 0 empty empty empty -2 -8 0 10 -262144
-1 -1 5080 1;
#X obj 153 50 * 127;
#X obj 153 101 / 127;
#X obj 445 77 hsl 128 15 0 127 0 0 empty empty empty -2 -8 0 10 -262144
-1 -1 0 1;
#X obj 442 101 / 127;
#X obj 442 49 * 127;
#X obj 442 126 * 135;
#X obj 442 151 + 1;
#X msg 442 202 \$1 50;
#X obj 873 57 t f;
#X obj 873 7 loadbang;
#X msg 873 32 64;
#X obj 153 22 r frequency;
#X obj 441 22 r cutoff;
#X obj 22 1218 outlet~;
#X obj 215 1221 outlet~;
#X obj 32 930 +~;
#X obj 973 10 inlet;
#X obj 1040 8 inlet;
#X obj 1045 116 * -1;
#X obj 1046 142 + 1;
#X obj 945 218 loadbang;
#X msg 943 252 1;
#X obj 949 464 line~;
#X obj 148 781 *~, f 4;
#X obj 946 288 metro 2000;
#X obj 1058 232 + 0.001;
#X obj 138 464 +~;
#X obj 132 340 noise~;
#X obj 1060 330 +;
#X obj 1107 352 + 10;
#X obj 1060 299 + 20;
#X obj 149 855 *~, f 4;
#X obj 1180 265 line~;
#X obj 1174 124 >= 0.02;
#X msg 1181 223 \$1 100;
#X obj 135 490 phasor~ 110;
#X obj 140 542 -~ 0.5;
#X obj 138 582 abs~;
#X obj 135 653 -~ 1;
#X obj 142 707 bob~, f 84;
#X obj 133 617 *~ 4;
#X obj 932 586 pow~ 2;
#X obj 1107 323 random 140;
#X obj 1106 378 t b f;
#X obj 905 662 *~ 10000;
#X obj 134 368 *~ 22;
#X obj 1025 420 delay 10;
#X msg 948 421 0.99 10;
#X msg 1025 448 0 150;
#X obj 199 417 osc~ 220;
#X obj 434 492 mtof;
#X obj 325 568 sig~;
#X obj 435 558 *~ 2;
#X obj 424 526 *~ 2;
#X obj 132 419 +~;
#X obj 199 445 *~;
#X obj 435 457 + 45;
#X obj 435 373 random 100;
#X obj 439 415 / 100;
#X obj 945 332 t b;
#X obj 1054 195 pow 400;
#X obj 1059 268 * 1000;
#X connect 0 0 29 1;
#X connect 1 0 29 0;
#X connect 2 0 5 0;
#X connect 2 0 27 0;
#X connect 2 0 28 0;
#X connect 3 0 4 0;
#X connect 4 0 29 2;
#X connect 5 0 1 0;
#X connect 6 0 2 0;
#X connect 7 0 6 0;
#X connect 8 0 9 0;
#X connect 9 0 3 0;
#X connect 10 0 0 1;
#X connect 10 0 1 1;
#X connect 11 0 10 0;
#X connect 12 0 13 0;
#X connect 13 0 18 0;
#X connect 13 0 30 3;
#X connect 14 0 12 0;
#X connect 15 0 14 0;
#X connect 16 0 30 1;
#X connect 16 1 30 2;
#X connect 17 0 16 3;
#X connect 18 0 17 0;
#X connect 19 0 54 0;
#X connect 20 0 46 0;
#X connect 21 0 22 0;
#X connect 22 0 25 0;
#X connect 23 0 21 0;
#X connect 24 0 23 0;
#X connect 25 0 19 2;
#X connect 26 0 19 1;
#X connect 27 0 0 0;
#X connect 28 0 0 2;
#X connect 29 0 19 0;
#X connect 30 0 52 0;
#X connect 30 1 53 0;
#X connect 31 0 6 0;
#X connect 32 0 39 0;
#X connect 33 0 9 0;
#X connect 34 0 23 0;
#X connect 35 0 43 0;
#X connect 36 0 14 0;
#X connect 37 0 11 0;
#X connect 38 0 40 0;
#X connect 39 0 38 0;
#X connect 40 0 37 0;
#X connect 41 0 42 0;
#X connect 42 0 44 0;
#X connect 43 0 41 0;
#X connect 44 0 45 0;
#X connect 45 0 20 0;
#X connect 46 0 26 0;
#X connect 47 0 3 0;
#X connect 47 0 21 0;
#X connect 47 0 12 0;
#X connect 47 0 38 0;
#X connect 48 0 49 0;
#X connect 49 0 47 0;
#X connect 50 0 39 0;
#X connect 51 0 43 0;
#X connect 54 0 16 1;
#X connect 54 0 16 0;
#X connect 54 0 30 0;
#X connect 56 0 57 0;
#X connect 56 0 72 0;
#X connect 57 0 58 0;
#X connect 58 0 99 0;
#X connect 59 0 60 0;
#X connect 60 0 63 0;
#X connect 61 0 80 0;
#X connect 62 0 70 0;
#X connect 63 0 98 0;
#X connect 64 0 100 0;
#X connect 65 0 74 0;
#X connect 66 0 84 0;
#X connect 67 0 63 1;
#X connect 68 0 82 0;
#X connect 69 0 67 0;
#X connect 71 0 70 1;
#X connect 72 0 73 0;
#X connect 73 0 71 0;
#X connect 74 0 75 0;
#X connect 75 0 76 0;
#X connect 76 0 79 0;
#X connect 77 0 78 0;
#X connect 78 0 62 0;
#X connect 79 0 77 0;
#X connect 80 0 62 1;
#X connect 80 0 83 0;
#X connect 81 0 68 0;
#X connect 82 0 67 0;
#X connect 82 1 67 1;
#X connect 83 0 78 1;
#X connect 84 0 93 0;
#X connect 85 0 87 0;
#X connect 86 0 61 0;
#X connect 87 0 61 0;
#X connect 88 0 94 0;
#X connect 89 0 90 0;
#X connect 89 0 92 0;
#X connect 90 0 93 1;
#X connect 91 0 94 1;
#X connect 92 0 91 0;
#X connect 92 0 88 0;
#X connect 93 0 65 0;
#X connect 94 0 65 1;
#X connect 95 0 89 0;
#X connect 96 0 97 0;
#X connect 97 0 95 0;
#X connect 98 0 96 0;
#X connect 98 0 86 0;
#X connect 98 0 85 0;
#X connect 98 0 81 0;
#X connect 99 0 64 0;
#X connect 100 0 69 0;
